<mxfile host="Electron" modified="2024-08-02T11:37:41.020Z" agent="Mozilla/5.0 (X11; Linux x86_64) AppleWebKit/537.36 (KHTML, like Gecko) draw.io/21.6.5 Chrome/114.0.5735.243 Electron/25.3.1 Safari/537.36" etag="Nl6KpSo4MCRpTYcL4U9-" version="21.6.5" type="device">
  <diagram name="Page-1" id="Hsbhw2hLou6ln3_cuhlk">
    <mxGraphModel dx="384" dy="837" grid="1" gridSize="10" guides="1" tooltips="1" connect="1" arrows="1" fold="1" page="1" pageScale="1" pageWidth="827" pageHeight="1169" math="0" shadow="0">
      <root>
        <mxCell id="0" />
        <mxCell id="1" parent="0" />
        <mxCell id="yl1WzndAGqq6fcokq75D-4" value="" style="rounded=0;whiteSpace=wrap;html=1;strokeWidth=0;fillColor=#cce5ff;strokeColor=#36393d;" vertex="1" parent="1">
          <mxGeometry x="360" y="680" width="200" height="120" as="geometry" />
        </mxCell>
        <mxCell id="yl1WzndAGqq6fcokq75D-1" value="&lt;font style=&quot;font-size: 90px;&quot;&gt;SUS&lt;/font&gt;" style="text;html=1;strokeColor=none;fillColor=none;align=center;verticalAlign=middle;whiteSpace=wrap;rounded=0;fontFamily=Comic Neue;fontSource=https%3A%2F%2Ffonts.googleapis.com%2Fcss%3Ffamily%3DComic%2BNeue;fontStyle=1;fontSize=90;fontColor=#4F4F4F;" vertex="1" parent="1">
          <mxGeometry x="359" y="681" width="200" height="120" as="geometry" />
        </mxCell>
        <mxCell id="yl1WzndAGqq6fcokq75D-7" value="" style="rounded=0;whiteSpace=wrap;html=1;strokeWidth=0;fillColor=#10739E;strokeColor=#36393d;" vertex="1" parent="1">
          <mxGeometry x="360" y="640" width="200" height="40" as="geometry" />
        </mxCell>
        <mxCell id="yl1WzndAGqq6fcokq75D-8" value="" style="rounded=0;whiteSpace=wrap;html=1;strokeWidth=0;fillColor=#10739E;strokeColor=#36393d;" vertex="1" parent="1">
          <mxGeometry x="360" y="800" width="200" height="40" as="geometry" />
        </mxCell>
      </root>
    </mxGraphModel>
  </diagram>
</mxfile>
